<?xml version="1.0" encoding="UTF-8"?>
<svg width="150pt" height="150pt" version="1.1" viewBox="0 0 700 700" xmlns="http://www.w3.org/2000/svg" xmlns:xlink="http://www.w3.org/1999/xlink">
 <g>
  <path d="m301.88 140c7.2344 0 13.125 5.8906 13.125 13.125v61.25c0 7.2344-5.8906 13.125-13.125 13.125s-13.125-5.8906-13.125-13.125v-61.25c0-7.2344 5.8906-13.125 13.125-13.125zm-43.75-17.5c7.2344 0 13.125 5.8906 13.125 13.125v78.75c0 7.2344-5.8906 13.125-13.125 13.125s-13.125-5.8906-13.125-13.125v-78.75c0-7.2344 5.8906-13.125 13.125-13.125zm-56.875-4.375c0-7.2344 5.8906-13.125 13.125-13.125s13.125 5.8906 13.125 13.125v96.25c0 7.2344-5.8906 13.125-13.125 13.125s-13.125-5.8906-13.125-13.125v-7.4453c10.309-4.9336 17.5-15.383 17.5-27.555s-7.1914-22.617-17.5-27.555zm-17.5 96.25c0 7.2344-5.8906 13.125-13.125 13.125-1.5156 0-2.9844-0.28906-4.375-0.78906v-16.711h17.5zm-13.125-91.875c7.2344 0 13.125 5.8906 13.125 13.125v13.125h-26.25v-13.125c0-7.2344 5.8906-13.125 13.125-13.125zm118.12 420h-140v-148.75h140zm-35-218.75v17.5c6.0195 0 11.863-0.74219 17.5-2.0312v37.031h-105v-37.031c5.6367 1.2891 11.48 2.0312 17.5 2.0312v-17.5c-33.766 0-61.25-27.484-61.25-61.25v-70c0-14.473 11.777-26.25 26.25-26.25h39.375c7.2344 0 13.125 5.8906 13.125 13.125s-5.8906 13.125-13.125 13.125h-30.625c-4.8398 0-8.75 3.9219-8.75 8.75v52.5c0 4.8281 3.9102 8.75 8.75 8.75 24.125 0 43.75 19.625 43.75 43.75h17.5c0-30.809-22.855-56.367-52.5-60.629v-0.97266c1.4453 0.20312 2.8945 0.35156 4.375 0.35156 8.5742 0 16.309-3.5625 21.875-9.2578 5.5664 5.6953 13.301 9.2578 21.875 9.2578s16.309-3.5625 21.875-9.2578c5.5664 5.6953 13.301 9.2578 21.875 9.2578s16.309-3.5625 21.875-9.2578c5.5664 5.6953 13.301 9.2578 21.875 9.2578 4.7148 0 9.1367-1.1641 13.125-3.0703v20.57c0 33.766-27.484 61.25-61.25 61.25z"/>
  <path d="m428.75 144.38c0-7.2344 5.8906-13.125 13.125-13.125s13.125 5.8906 13.125 13.125v61.25c0 7.2344-5.8906 13.125-13.125 13.125s-13.125-5.8906-13.125-13.125zm-43.75 17.5c0-7.2344 5.8906-13.125 13.125-13.125s13.125 5.8906 13.125 13.125v43.75c0 7.2344-5.8906 13.125-13.125 13.125s-13.125-5.8906-13.125-13.125zm166.25 380.62h-140v-148.75h140zm26.25-280c0 33.766-27.484 61.25-61.25 61.25v17.5c6.0195 0 11.863-0.74219 17.5-2.0312v37.031h-105v-37.031c5.6367 1.2891 11.48 2.0312 17.5 2.0312v-17.5c-33.766 0-61.25-27.484-61.25-61.25v-29.32c3.9883 1.9062 8.4102 3.0703 13.125 3.0703 8.5742 0 16.309-3.5625 21.875-9.2578 5.5664 5.6953 13.301 9.2578 21.875 9.2578 16.887 0 30.625-13.738 30.625-30.625v-166.25c0-7.2344 5.8906-13.125 13.125-13.125s13.125 5.8906 13.125 13.125v109.38h17.5v-91.875c0-7.2344 5.8906-13.125 13.125-13.125s13.125 5.8906 13.125 13.125v109.38h-30.625c-16.887 0-30.625 13.738-30.625 30.625s13.738 30.625 30.625 30.625h21.875v17.5c-24.125 0-43.75 19.625-43.75 43.75v17.5h17.5v-17.5c0-14.473 11.777-26.25 26.25-26.25h8.75c4.8398 0 8.75-3.9219 8.75-8.75v-35c0-4.8281-3.9102-8.75-8.75-8.75h-30.625c-7.2344 0-13.125-5.8906-13.125-13.125s5.8906-13.125 13.125-13.125h39.375c14.473 0 26.25 11.777 26.25 26.25z"/>
  <use x="70" y="691.25" xlink:href="#l"/>
  <use x="102.109375" y="691.25" xlink:href="#h"/>
  <use x="123.683594" y="691.25" xlink:href="#a"/>
  <use x="153.355469" y="691.25" xlink:href="#c"/>
  <use x="182.878906" y="691.25" xlink:href="#b"/>
  <use x="203.792969" y="691.25" xlink:href="#a"/>
  <use x="233.464844" y="691.25" xlink:href="#g"/>
  <use x="280.011719" y="691.25" xlink:href="#f"/>
  <use x="311.328125" y="691.25" xlink:href="#e"/>
  <use x="355.078125" y="691.25" xlink:href="#d"/>
  <use x="384.921875" y="691.25" xlink:href="#a"/>
  <use x="414.59375" y="691.25" xlink:href="#k"/>
  <use x="460.183594" y="691.25" xlink:href="#j"/>
  <use x="491.5" y="691.25" xlink:href="#i"/>
  <use x="506.496094" y="691.25" xlink:href="#c"/>
  <use x="536.019531" y="691.25" xlink:href="#b"/>
  <use x="556.933594" y="691.25" xlink:href="#a"/>
 </g>
</svg>
