<svg width="1585" height="113" viewBox="0 0 1585 113" fill="none" xmlns="http://www.w3.org/2000/svg">
<path fill-rule="evenodd" clip-rule="evenodd" d="M-9 0L57.0016 4.24566C124.248 8.49133 256.252 16.9827 389.5 31.3526C522.748 46.0491 654.752 66.9509 788 71.1965C921.248 75.4422 1053.25 62.7052 1186.5 58.7861C1319.75 54.5405 1451.75 58.7861 1519 60.7457L1585 62.7052V113H1519C1451.75 113 1319.75 113 1186.5 113C1053.25 113 921.248 113 788 113C654.752 113 522.748 113 389.5 113C256.252 113 124.248 113 57.0016 113H-9V0Z" fill="#FFB24F" fill-opacity="0.8"/>
<path fill-rule="evenodd" clip-rule="evenodd" d="M-9 45.2L44.1333 54.24C97.2667 63.28 203.533 81.36 309.8 76.84C416.067 72.32 522.333 45.2 628.6 27.12C734.867 9.04 841.133 0 947.4 0C1053.67 0 1159.93 9.04 1266.2 24.86C1372.47 40.68 1478.73 63.28 1531.87 74.58L1585 85.88V113H1531.87C1478.73 113 1372.47 113 1266.2 113C1159.93 113 1053.67 113 947.4 113C841.133 113 734.867 113 628.6 113C522.333 113 416.067 113 309.8 113C203.533 113 97.2667 113 44.1333 113H-9V45.2Z" fill="#224957" fill-opacity="0.85"/>
</svg>
